<?xml version="1.0" encoding="UTF-8"?>
<svg xmlns="http://www.w3.org/2000/svg" viewBox="0 0 1200 630" width="1200" height="630">
  <defs>
    <linearGradient id="g18443" x1="65.45084971874736%" y1="2.447174185242318%" x2="34.549150281252636%" y2="97.55282581475768%">
      <stop offset="0%" stop-color="#1E40AF"/>
      <stop offset="100%" stop-color="#1E3A8A"/>
    </linearGradient>
  </defs>
  <rect width="1200" height="630" fill="url(#g18443)"/>
  <rect x="365.32553089782596" y="220.8085928671062" width="28" height="229.1914071328938" rx="3" fill="rgba(255,255,255,0.0700839402154088)"/><rect x="405.32553089782596" y="295.1525278016925" width="28" height="154.8474721983075" rx="3" fill="rgba(255,255,255,0.10139456387609244)"/><rect x="445.32553089782596" y="191.06701143085957" width="28" height="258.93298856914043" rx="3" fill="rgba(255,255,255,0.11061844063922763)"/><rect x="485.32553089782596" y="289.2021976504475" width="28" height="160.7978023495525" rx="3" fill="rgba(255,255,255,0.13369595961645248)"/><rect x="525.325530897826" y="296.6491188015789" width="28" height="153.35088119842112" rx="3" fill="rgba(255,255,255,0.11422562010586262)"/><rect x="565.325530897826" y="238.9567834418267" width="28" height="211.0432165581733" rx="3" fill="rgba(255,255,255,0.07503424379974603)"/><rect x="605.325530897826" y="264.11414589732885" width="28" height="185.88585410267115" rx="3" fill="rgba(255,255,255,0.06894894171506166)"/><path d="M 600 445.23953723255545 L 650 420.57247786666267 L 700 388.2720875774976 L 750 351.495103626512 L 800 317.8195268299896 L 850 300.9463802911341 L 900 263.88045818544924 L 950 229.80783827253617 L 1000 209.0815474349074 L 1050 179.50650318874978 L 1100 153.35723070893437" fill="none" stroke="rgba(255,255,255,0.18)" stroke-width="2.5"/><text x="659.9354542791843" y="221.08869007788599" font-family="sans-serif" font-size="98.85557211469859" fill="rgba(255,255,255,0.06877328329952434)">₹</text><text x="853.5214754752815" y="294.1544894594699" font-family="sans-serif" font-size="86.9889642810449" fill="rgba(255,255,255,0.04133962660329416)">₹</text><text x="438.8769270386547" y="283.5844158194959" font-family="sans-serif" font-size="47.75881519075483" fill="rgba(255,255,255,0.06712110601132736)">¥</text><text x="113.09773325920105" y="175.78421370126307" font-family="sans-serif" font-size="81.09561611432582" fill="rgba(255,255,255,0.08944402162451298)">¥</text><text x="807.2313306853175" y="212.34771367162466" font-family="sans-serif" font-size="63.2488366169855" fill="rgba(255,255,255,0.10300229226239027)">₹</text><circle cx="1049.6812255354598" cy="232.7122876048088" r="57.57541204337031" fill="none" stroke="rgba(255,255,255,0.1)" stroke-width="2"/><line x1="1049.6812255354598" y1="232.7122876048088" x2="1002.8911077268299" y2="199.16213190593908" stroke="rgba(255,255,255,0.1)" stroke-width="2"/><line x1="1049.6812255354598" y1="232.7122876048088" x2="1007.2673853299668" y2="193.77651702059177" stroke="rgba(255,255,255,0.1)" stroke-width="2"/><line x1="1049.6812255354598" y1="232.7122876048088" x2="1062.1622962002202" y2="288.918612400379" stroke="rgba(255,255,255,0.1)" stroke-width="2"/>
  <circle cx="912.7361836843193" cy="469.0253843413666" r="1.2990554319694638" fill="rgba(255,255,255,0.03621733819134533)"/><circle cx="249.1606048308313" cy="562.8197423857637" r="1.6841851607896388" fill="rgba(255,255,255,0.03333834284683689)"/><circle cx="113.40932724997401" cy="548.3349964069203" r="2.7680391734465957" fill="rgba(255,255,255,0.03079958353890106)"/><circle cx="206.06084391474724" cy="619.8727130773477" r="1.016300279647112" fill="rgba(255,255,255,0.06998359823599458)"/><circle cx="492.90899662300944" cy="475.81338092917576" r="1.8787483102642" fill="rgba(255,255,255,0.06986378316767514)"/><circle cx="1015.0237639434636" cy="529.6371856844053" r="2.2786478740163147" fill="rgba(255,255,255,0.05416259363526478)"/><circle cx="683.5035634227097" cy="495.34795932937413" r="2.292610022239387" fill="rgba(255,255,255,0.04955567282857373)"/><circle cx="356.71714106574655" cy="406.51452616788447" r="2.6310876891948283" fill="rgba(255,255,255,0.03431946640601381)"/><circle cx="199.3394237011671" cy="223.77866163617" r="1.9759799093008041" fill="rgba(255,255,255,0.07617147574899719)"/><circle cx="384.1061054728925" cy="237.95915270224214" r="1.749110740609467" fill="rgba(255,255,255,0.03439192180056125)"/><circle cx="188.3910077624023" cy="621.3162048580125" r="1.4345547650009394" fill="rgba(255,255,255,0.0571982649108395)"/><circle cx="659.1507285833359" cy="535.8185117086396" r="1.0977505310438573" fill="rgba(255,255,255,0.07832632800098509)"/><circle cx="316.8469819240272" cy="267.39214395638555" r="2.702379205264151" fill="rgba(255,255,255,0.07351635538041593)"/><circle cx="1122.7082608267665" cy="414.4901784625836" r="2.9744166689924896" fill="rgba(255,255,255,0.06971013550180942)"/><circle cx="393.28538216650486" cy="37.99679446499795" r="1.4725287812761962" fill="rgba(255,255,255,0.0505676929326728)"/><circle cx="1132.7937263064086" cy="391.0798504482955" r="2.870114845689386" fill="rgba(255,255,255,0.050512711931951344)"/><circle cx="436.5478559397161" cy="363.6303043970838" r="1.738244706299156" fill="rgba(255,255,255,0.041444958520587535)"/><circle cx="41.42942950129509" cy="426.9153388682753" r="1.3318415298126638" fill="rgba(255,255,255,0.0317735259141773)"/><circle cx="1127.9656841419637" cy="91.2269661622122" r="1.1545781921595335" fill="rgba(255,255,255,0.07684539909940213)"/><circle cx="291.1607153713703" cy="448.62780806142837" r="1.1931371693499386" fill="rgba(255,255,255,0.0523233689670451)"/>
  <text x="600" y="335" font-family="system-ui, -apple-system, 'Segoe UI', sans-serif" font-size="68" font-weight="700" fill="rgba(0,0,0,0.15)" text-anchor="middle" letter-spacing="1">XAT</text>
  <text x="600" y="332" font-family="system-ui, -apple-system, 'Segoe UI', sans-serif" font-size="68" font-weight="700" fill="white" text-anchor="middle" letter-spacing="1">XAT</text>
  <g transform="translate(1140, 575)">
    <rect x="0" y="0" width="40" height="40" rx="8" fill="rgba(255,255,255,0.15)"/>
    <text x="20" y="29" font-family="sans-serif" font-weight="bold" font-size="24" fill="rgba(255,255,255,0.6)" text-anchor="middle">K</text>
  </g>
</svg>